<svg width="100" height="99" viewBox="0 0 100 99" fill="none" xmlns="http://www.w3.org/2000/svg">
<path d="M50.0154 69.7373C61.1862 69.7373 70.2422 60.6812 70.2422 49.5105C70.2422 38.3395 61.1862 29.2836 50.0154 29.2836C38.8444 29.2836 29.7886 38.3395 29.7886 49.5105C29.7886 60.6812 38.8444 69.7373 50.0154 69.7373Z" stroke="#223055" stroke-width="7.58506" stroke-linecap="round" stroke-linejoin="round"/>
<path d="M4.50513 69.7372V29.2835C4.50513 15.3198 15.825 4 29.7887 4H70.2423C84.2059 4 95.5259 15.3198 95.5259 29.2835V69.7372C95.5259 83.7008 84.2059 95.0207 70.2423 95.0207H29.7887C15.825 95.0207 4.50513 83.7008 4.50513 69.7372Z" stroke="#223055" stroke-width="7.58506"/>
<path d="M77.8274 21.7498L77.8786 21.6929" stroke="#223055" stroke-width="7.58506" stroke-linecap="round" stroke-linejoin="round"/>
</svg>
