<svg width="62" height="62" viewBox="0 0 62 62" fill="none" xmlns="http://www.w3.org/2000/svg">
<path d="M31 43.4448C37.8727 43.4448 43.4444 37.8731 43.4444 31.0004C43.4444 24.1275 37.8727 18.5559 31 18.5559C24.1271 18.5559 18.5555 24.1275 18.5555 31.0004C18.5555 37.8731 24.1271 43.4448 31 43.4448Z" stroke="white" stroke-width="4.66667" stroke-linecap="round" stroke-linejoin="round"/>
<path d="M3 43.4444V18.5556C3 9.96447 9.96447 3 18.5556 3H43.4444C52.0355 3 59 9.96447 59 18.5556V43.4444C59 52.0355 52.0355 59 43.4444 59H18.5556C9.96447 59 3 52.0355 3 43.4444Z" stroke="white" stroke-width="4.66667"/>
<path d="M48.1111 13.9207L48.1426 13.8857" stroke="white" stroke-width="4.66667" stroke-linecap="round" stroke-linejoin="round"/>
</svg>
